<?xml version="1.0" encoding="UTF-8" standalone="no"?>
<!-- Created with Inkscape (http://www.inkscape.org/) -->
<svg id="svg3115" xmlns:rdf="http://www.w3.org/1999/02/22-rdf-syntax-ns#" xmlns="http://www.w3.org/2000/svg" viewBox="0 0 440.11 82.017" version="1.1" xmlns:cc="http://creativecommons.org/ns#" xmlns:dc="http://purl.org/dc/elements/1.1/">
 <metadata id="metadata3120">
  <rdf:RDF>
   <cc:Work rdf:about="">
    <dc:format>image/svg+xml</dc:format>
    <dc:type rdf:resource="http://purl.org/dc/dcmitype/StillImage"/>
    <dc:title/>
   </cc:Work>
  </rdf:RDF>
 </metadata>
 <g id="layer1" fill-rule="nonzero" transform="translate(-139.94613,-311.35343)" fill="#FFF">
  <path id="path22" d="m320.18,360.14c0-11.81,7.3488-17.499,16.206-17.499h9.0712v35.212h-9.1475c-8.8562,0-16.13-5.7588-16.13-17.714m37.611-40.922c4.4625,0,7.1275,2.9912,7.1275,8,0,4.9362-2.68,7.8838-7.1675,7.8838h-3.2425v-15.884h3.2825zm0.11875,23.752c9.2538,0,15.47-6.3312,15.47-15.752,0-9.4912-6.2-15.868-15.429-15.868h-11.708v0.002h-0.76625v23.368h-9.38c-13.825,0-24.916,9.075-24.916,25.42,0,16.418,10.944,25.635,24.841,25.635h9.455v7.5925h8.6675v-7.84h8.6212v-7.5h-8.6212v-35.058h3.765z"/>
  <path id="path26" d="m152.42,361.73c3.37,0,5.3812-1.76,5.3812-4.6275,0-2.8162-1.8112-4.7775-5.2812-4.7775h-5.7338v9.405h5.6338zm-0.70375-15.14c3.1688,0,5.0788-1.7612,5.0788-4.4762,0-2.7162-1.76-4.425-5.13-4.425h-4.8788v8.9012h4.93zm1.055-14.736c6.9412,0,10.865,4.0725,10.865,9.6062,0,3.6725-2.2138,6.64-5.1812,7.645,3.47,0.855,6.2875,4.0238,6.2875,8.45,0,5.7838-4.3262,9.9588-11.015,9.9588h-13.781v-35.66h12.825z"/>
  <path id="path30" d="m178.82,353.03,9.8588,0-4.93-13.479-4.9288,13.479zm12.171,6.3375-14.485,0-2.9675,8.1488-7.3438,0,13.681-35.66,8.0475,0,13.58,35.66-7.545,0-2.9675-8.1488z"/>
  <path id="path34" d="m202.25,349.71c0-11.368,8.6-18.61,18.156-18.61,9.8588,0,14.939,6.035,16.348,11.82l-6.5388,2.0625c-0.855-3.4212-3.6212-7.1925-9.8088-7.1925-5.3312,0-10.964,3.8212-10.964,11.92,0,7.595,5.3312,11.77,11.065,11.77,6.0862,0,9.0538-3.9738,10.009-7.2938l6.4888,1.9612c-1.3575,5.4825-6.4888,12.122-16.498,12.122-9.9588,0-18.258-7.1925-18.258-18.56"/>
  <path id="path38" d="m254.15,352.72-4.4262,4.8788,0,9.9088-6.9412,0,0-35.66,6.9412,0,0,16.145,14.284-16.145,9.1038,0-14.132,15.541,14.234,20.119-8.7012,0-10.361-14.788z"/>
  <path id="path42" d="m419.42,367.51,0-35.66,22.532,0,0,6.5888-15.591,0,0,8.8012,13.881,0,0,6.3888-13.831,0,0,13.881-6.9912,0z"/>
  <path id="path46" d="m463.63,361.53c5.5325,0,11.166-3.8238,11.166-11.87,0-8.0488-5.6338-11.87-11.166-11.87-5.4838,0-11.116,3.8212-11.116,11.87,0,8.0462,5.6325,11.87,11.116,11.87m0-30.43c9.7075,0,18.359,7.0925,18.359,18.61,0,11.468-8.6512,18.56-18.359,18.56-9.6575,0-18.308-7.0925-18.308-18.56,0-11.518,8.65-18.61,18.308-18.61"/>
  <path id="path50" d="m500.64,347.8c3.52,0,5.5838-2.0112,5.5838-4.9288,0-3.0175-2.0638-4.98-5.5838-4.98h-5.6338v9.9088h5.6338zm-2.0112,5.9862-3.6225,0,0,13.73-6.9912,0,0-35.66,13.932,0c6.9425,0,11.368,4.7775,11.368,10.965,0,4.9788-2.9162,8.7525-7.595,10.109l7.6462,14.586h-7.7475l-6.99-13.73z"/>
  <path id="path54" d="m534.44,338.44,0,29.071-6.9912,0,0-29.071-11.265,0,0-6.5888,29.524,0,0,6.5888-11.268,0z"/>
  <path id="path58" d="m573.06,367.51,0-14.788-15.543,0,0,14.788-6.94,0,0-35.66,6.94,0,0,14.334,15.543,0,0-14.334,6.9912,0,0,35.66-6.9912,0z"/>
 </g>
</svg>
