<?xml version="1.0" encoding="UTF-8" standalone="no"?>
<!-- Created with Inkscape (http://www.inkscape.org/) -->
<svg id="svg3358" xmlns:rdf="http://www.w3.org/1999/02/22-rdf-syntax-ns#" xmlns="http://www.w3.org/2000/svg" viewBox="0 0 372.84 87.359" version="1.1" xmlns:cc="http://creativecommons.org/ns#" xmlns:dc="http://purl.org/dc/elements/1.1/">
 <metadata id="metadata3363">
  <rdf:RDF>
   <cc:Work rdf:about="">
    <dc:format>image/svg+xml</dc:format>
    <dc:type rdf:resource="http://purl.org/dc/dcmitype/StillImage"/>
    <dc:title/>
   </cc:Work>
  </rdf:RDF>
 </metadata>
 <g id="layer1" transform="translate(-156.43514,-337.25411)">
  <path id="path153" fill="#ee3724" d="m342.89,402.89c0,12.996,8.892,21.728,22.125,21.728,13.329,0,22.285-8.708,22.285-21.67v-16.443h-0.004v-1.076h-32.818v-13.176c0-19.417-12.747-34.994-35.703-34.994-23.057,0-36.004,15.372-36.004,34.89v13.28h-10.665v12.173h11.011v12.108h10.534v-12.108h49.239v5.288zm33.36-0.167c0,6.268-4.2,10.011-11.235,10.011-6.933,0-11.072-3.764-11.072-10.068v-4.553h22.307v4.61zm-57.475-52.825c16.587,0,24.576,10.321,24.576,22.762v12.741h-49.454v-12.848c0-12.438,8.088-22.655,24.878-22.655z"/>
  <path id="path157" fill="#010101" d="m166.7,380.93c5.553,0,8.691,3.259,8.691,7.686,0,2.938-1.771,5.312-4.145,6.116,2.776,0.684,5.03,3.219,5.03,6.76,0,4.627-3.46,7.967-8.812,7.967h-11.024v-28.528h10.26zm-0.845,11.789c2.535,0,4.064-1.408,4.064-3.581s-1.408-3.54-4.104-3.54h-3.903v7.121h3.943zm0.564,12.112c2.696,0,4.305-1.408,4.305-3.702,0-2.253-1.449-3.822-4.225-3.822h-4.587v7.524h4.507z"/>
  <path id="path159" fill="#010101" d="m197.27,402.94h-11.588l-2.374,6.519h-5.875l10.945-28.528h6.438l10.864,28.528h-6.036l-2.374-6.519zm-9.738-5.07h7.887l-3.943-10.783-3.944,10.783z"/>
  <path id="path161" fill="#010101" d="m206.28,395.22c0-9.094,6.88-14.888,14.525-14.888,7.887,0,11.951,4.828,13.078,9.456l-5.231,1.649c-0.684-2.736-2.897-5.754-7.847-5.754-4.265,0-8.771,3.058-8.771,9.536,0,6.076,4.265,9.416,8.852,9.416,4.869,0,7.243-3.179,8.007-5.835l5.191,1.569c-1.086,4.386-5.191,9.697-13.198,9.697-7.967,0.001-14.606-5.753-14.606-14.846z"/>
  <path id="path163" fill="#010101" d="m247.8,397.63-3.541,3.903v7.927h-5.553v-28.528h5.553v12.916l11.427-12.916h7.283l-11.307,12.434,11.387,16.095h-6.961l-8.288-11.831z"/>
  <path id="path167" fill="#010101" d="m400.78,409.46v-28.528h18.026v5.271h-12.474v7.041h11.105v5.11h-11.065v11.105h-5.592z"/>
  <path id="path169" fill="#010101" d="m436.14,380.33c7.766,0,14.687,5.674,14.687,14.888,0,9.174-6.921,14.848-14.687,14.848-7.726,0-14.646-5.674-14.646-14.848,0-9.214,6.921-14.888,14.646-14.888zm0,24.344c4.426,0,8.933-3.059,8.933-9.496,0-6.438-4.507-9.496-8.933-9.496-4.387,0-8.893,3.058-8.893,9.496,0.001,6.437,4.507,9.496,8.893,9.496z"/>
  <path id="path171" fill="#010101" d="m464.14,398.48h-2.897v10.984h-5.593v-28.528h11.146c5.554,0,9.094,3.822,9.094,8.771,0,3.983-2.333,7.002-6.075,8.088l6.116,11.669h-6.197l-5.594-10.984zm1.61-4.789c2.816,0,4.467-1.609,4.467-3.943,0-2.414-1.65-3.983-4.467-3.983h-4.507v7.927h4.507z"/>
  <path id="path173" fill="#010101" d="m492.79,386.21v23.257h-5.593v-23.257h-9.013v-5.271h23.619v5.271h-9.013z"/>
  <path id="path175" fill="#010101" d="m523.69,409.46v-11.83h-12.434v11.83h-5.553v-28.528h5.553v11.468h12.434v-11.468h5.593v28.528h-5.593z"/>
 </g>
</svg>
