<?xml version="1.0" encoding="UTF-8" standalone="no"?>
<!-- Created with Inkscape (http://www.inkscape.org/) -->
<svg id="svg3213" xmlns:rdf="http://www.w3.org/1999/02/22-rdf-syntax-ns#" xmlns="http://www.w3.org/2000/svg" viewBox="0 0 91.379 103.47" version="1.1" xmlns:cc="http://creativecommons.org/ns#" xmlns:dc="http://purl.org/dc/elements/1.1/">
 <metadata id="metadata3218">
  <rdf:RDF>
   <cc:Work rdf:about="">
    <dc:format>image/svg+xml</dc:format>
    <dc:type rdf:resource="http://purl.org/dc/dcmitype/StillImage"/>
    <dc:title/>
   </cc:Work>
  </rdf:RDF>
 </metadata>
 <g id="layer1" fill="#FFF" transform="translate(-108.59635,-240.62748)">
  <path id="path170" d="m192.36,336.78c0.157-0.603,1.086-0.469,0.083-0.469h-1.685-6.814-21.227-42.636-4.014c-0.292,0,0.399,2.633,0.399,0.165v-14.792-46.769-13.092c0-1.337-1.612,0.895-0.013,0.895h5.212,43.94,20.249,5.58c2.312,0,0.789-0.085,0.789-1.227v34.531,41.787c0,4.997,7.75,4.997,7.75,0v-73.021c0-4.677-0.759-9.82-6.939-9.82h-9.089-45.535-18.329c-3.821,0-9.732-0.518-10.986,4.296-0.82,3.148-0.379,6.704-0.379,9.92v20.926,43.173c0,3.787-0.46,9.641,4.716,10.452,3.314,0.519,6.667,0.325,10.018,0.325h45.911,19.246c4.519,0,9.788,0.304,11.227-5.221,1.259-4.839-6.216-6.891-7.474-2.059z"/>
  <path id="path176" d="m189.6,257.7c-0.913,6.201-2.228,12.368-3.902,18.406-1.087,3.919-2.354,7.863-4.559,11.309-0.262,0.409-0.605,0.732-0.95,1.072,0.136-0.133,0.973-0.083,0.017-0.083h-4.14-46.069c-5.675,0-5.675,8.8,0,8.8h49.24c8.698,0,11.805-8.8549,14.097-15.917,2.2313-6.8759,3.7-14.098,4.752-21.248,0.817-5.549-7.662-7.937-8.486-2.339z"/>
  <path id="path182" d="m110.62,260.02c1.248,8.723,3.084,17.299,6.182,25.566,2.616,6.981,6.566,11.792,14.471,11.599,5.665-0.138,5.678-8.939,0-8.8-5.971,0.146-7.287-8.555-8.646-13.224-1.662-5.711-2.68-11.602-3.521-17.481-0.801-5.599-9.28-3.209-8.486,2.34z"/>
  <path id="path188" d="m136.99,296.12c0.092-0.916,1.2966-0.8268,1.049-1.336-0.31076-0.63912-1.422,0-2.132,0h-1.383c0.64,0,1.26,1.228,1.26,1.15v-6.453c0,0.968-1.621,1.336-1.049,1.336h2.132,1.383c-0.64,0-1.26-1.228-1.26-1.15v6.453c0,5.675,8.801,5.675,8.801,0,0-4.768,0.93-10.558-4.051-13.262-2.15-1.167-4.856-0.842-7.216-0.842-4.39,0-7.129,3.378-7.541,7.464-0.464,4.605-0.53,10.776,4.051,13.262,2.15,1.167,4.856,0.842,7.216,0.842,4.39,0,7.129-3.378,7.541-7.464,0.241-2.391-2.184-4.4-4.4-4.4-2.582,0-4.161,2.014-4.401,4.4z"/>
  <path id="path194" d="m172.9,296.12c0.092-0.916,1.562-1.336,1.049-1.336h-2.132-1.383c0.64,0,1.26,1.228,1.26,1.15v-6.453c0,0.968-1.621,1.336-1.049,1.336h2.132,1.383c-0.64,0-1.26-1.228-1.26-1.15v6.453c0,5.675,8.8,5.675,8.8,0,0-4.768,0.93-10.558-4.051-13.262-2.149-1.167-4.856-0.842-7.216-0.842-4.39,0-7.129,3.378-7.541,7.464-0.464,4.605-0.53,10.776,4.051,13.262,2.15,1.167,4.856,0.842,7.216,0.842,4.39,0,7.129-3.378,7.541-7.464,0.241-2.391-2.184-4.4-4.4-4.4-2.581,0-4.16,2.014-4.4,4.4z"/>
  <path id="path200" d="m172.29,312.67h-35.901l4.4,4.4v-7.937c-1.467,1.467-2.933,2.933-4.4,4.4h35.901l-4.4-4.4v7.937c0,5.675,8.801,5.675,8.801,0v-7.937c0-2.399-2.002-4.4-4.4-4.4h-35.901c-2.399,0-4.4,2.002-4.4,4.4v7.937c0,2.399,2.002,4.4,4.4,4.4h35.901c5.674,0,5.674-8.8-0.001-8.8z"/>
  <path id="path206" d="m170.41,328.62h-32.091l4.4,4.4v-15.956c-1.467,1.467-2.933,2.933-4.4,4.4h32.091l-4.4-4.4v15.956c0,5.675,8.801,5.675,8.801,0v-15.956c0-2.399-2.002-4.4-4.4-4.4h-32.091c-2.399,0-4.4,2.002-4.4,4.4v15.956c0,2.399,2.002,4.4,4.4,4.4h32.091c5.674,0,5.674-8.8-0.001-8.8z"/>
  <path id="path212" d="m140.19,257.54c0.148-0.209,0.542-0.699-0.127,0.152,0.507-0.645,1.058-1.253,1.616-1.855,1.733-1.869,3.682-3.387,5.885-4.66,8.342-4.821,16.123,0.964,21.616,7.253,3.74,4.282,9.939-1.969,6.223-6.223-7.317-8.378-17.502-14.362-28.719-10.258-5.647,2.066-10.631,6.265-14.092,11.149-3.29,4.642,4.346,9.031,7.598,4.442z"/>
 </g>
</svg>
