<?xml version="1.0" encoding="UTF-8" standalone="no"?>
<!-- Created with Inkscape (http://www.inkscape.org/) -->
<svg id="svg3442" xmlns:rdf="http://www.w3.org/1999/02/22-rdf-syntax-ns#" xmlns="http://www.w3.org/2000/svg" viewBox="0 0 97.86 98.28" version="1.1" xmlns:cc="http://creativecommons.org/ns#" xmlns:dc="http://purl.org/dc/elements/1.1/">
 <metadata id="metadata3447">
  <rdf:RDF>
   <cc:Work rdf:about="">
    <dc:format>image/svg+xml</dc:format>
    <dc:type rdf:resource="http://purl.org/dc/dcmitype/StillImage"/>
    <dc:title/>
   </cc:Work>
  </rdf:RDF>
 </metadata>
 <g id="layer1" fill="#414042" transform="translate(-213.92727,-574.6507)">
  <path id="path59" d="m300.54,660.37c-0.22,2.178-8.076,1.121-9.379,1.121h-21.376-41.103c-2.774,0-3.543-0.29-3.543-3.17v-16.33-45.852c0-2.039-1.134-7.949,0.328-9.721,1.194-1.447,8.193-0.328,9.721-0.328h45.852,16.33c2.88,0,3.17,0.769,3.17,3.543v41.103,29.634c0,7.231,11.213,7.231,11.213,0v-71.455c0-7.247-4.364-14.038-12.352-14.038h-10.312-46.182c-10.051,0-28.981-2.948-28.981,12.406v33.518,38.465c0,7.185,4.895,13.439,12.494,13.439h11.647,44.704c11.002,0,27.443,2.928,28.981-12.334,0.726-7.194-10.494-7.124-11.212-0.001z"/>
  <path id="path64" d="m276.39,614.01h10.553v10.662h-10.618v28.512h-12.466v-28.479h-7.123v-10.646h7.042c0.027-0.506,0.05-0.908,0.07-1.31,0.157-3.158,0.172-6.331,0.502-9.471,0.514-4.894,2.778-7.177,7.629-8.091,4.935-0.931,9.925-0.711,14.972-0.789v10.646c-0.303,0-0.638-0.016-0.971,0.003-2.136,0.121-4.279,0.173-6.404,0.396-2.079,0.218-2.976,1.099-3.155,3.184-0.149,1.737-0.031,3.499-0.031,5.383z"/>
 </g>
</svg>
