<?xml version="1.0" encoding="UTF-8" standalone="no"?>
<!-- Created with Inkscape (http://www.inkscape.org/) -->
<svg id="svg3475" xmlns:rdf="http://www.w3.org/1999/02/22-rdf-syntax-ns#" xmlns="http://www.w3.org/2000/svg" viewBox="0 0 111.06 17.135" version="1.1" xmlns:cc="http://creativecommons.org/ns#" xmlns:dc="http://purl.org/dc/elements/1.1/">
 <metadata id="metadata3480">
  <rdf:RDF>
   <cc:Work rdf:about="">
    <dc:format>image/svg+xml</dc:format>
    <dc:type rdf:resource="http://purl.org/dc/dcmitype/StillImage"/>
    <dc:title/>
   </cc:Work>
  </rdf:RDF>
 </metadata>
 <g id="layer1" stroke-linejoin="miter" transform="translate(-384.46875,-306.65412)" stroke="#339" stroke-linecap="butt" stroke-dasharray="none" stroke-miterlimit="10" stroke-width="1.875" fill="none">
  <path id="path170" d="m386.27,316.27,45.25,0,58.066,0,2.9238,0c1.16,0,1.16-1.7975,0-1.7975h-45.25-58.066-2.9225c-1.16,0-1.16,1.7975-0.001,1.7975z"/>
  <path id="path174" d="m486.93,309.63c2.045,2.2788,4.09,4.5575,6.1362,6.8375v-1.2712c-2.2788,2.045-4.5575,4.09-6.8362,6.135-0.86375,0.77625,0.41125,2.0425,1.2688,1.2712,2.28-2.045,4.5588-4.09,6.8375-6.135,0.37875-0.34,0.31375-0.9225,0-1.2712-2.045-2.2788-4.09-4.5575-6.135-6.8375-0.77625-0.86375-2.0438,0.4125-1.2712,1.2712z"/>
  <path id="path178" d="m386.7,309.16c2.045,2.2788,4.09,4.5575,6.135,6.8362v-1.2712c-2.2788,2.045-4.5575,4.09-6.8362,6.135-0.86375,0.77625,0.41125,2.0425,1.2712,1.2712,2.2788-2.045,4.5575-4.09,6.8375-6.1362,0.37875-0.34,0.3125-0.92125,0-1.2712-2.045-2.2788-4.09-4.5575-6.1362-6.8375-0.775-0.8625-2.0425,0.41375-1.2712,1.2738z"/>
  <path id="path182" d="m392.98,309.52c2.045,2.2788,4.09,4.5575,6.1362,6.8375v-1.2712c-2.2788,2.045-4.5575,4.09-6.8362,6.135-0.86375,0.77625,0.41125,2.0425,1.2712,1.2712,2.2788-2.045,4.5575-4.09,6.8362-6.135,0.37875-0.34,0.3125-0.92125,0-1.2712-2.045-2.2788-4.09-4.5575-6.135-6.8375-0.77625-0.86375-2.0438,0.4125-1.2725,1.2712z"/>
 </g>
</svg>
