<?xml version="1.0" encoding="UTF-8" standalone="no"?>
<!-- Created with Inkscape (http://www.inkscape.org/) -->
<svg id="svg3570" xmlns:rdf="http://www.w3.org/1999/02/22-rdf-syntax-ns#" xmlns="http://www.w3.org/2000/svg" viewBox="0 0 22.406 22.572" version="1.1" xmlns:cc="http://creativecommons.org/ns#" xmlns:dc="http://purl.org/dc/elements/1.1/">
 <metadata id="metadata3575">
  <rdf:RDF>
   <cc:Work rdf:about="">
    <dc:format>image/svg+xml</dc:format>
    <dc:type rdf:resource="http://purl.org/dc/dcmitype/StillImage"/>
    <dc:title/>
   </cc:Work>
  </rdf:RDF>
 </metadata>
 <g id="layer1" transform="translate(-583.08269,-683.93338)">
  <path id="path190" d="m603.18,702.16c-0.29,2.8875-6.5288,1.83-8.4062,1.83h-7.4925c-2.8475,0-1.83-6.7812-1.83-8.4062v-7.4925c0-2.8488,6.7825-1.83,8.4062-1.83h7.4912c2.8488,0,1.83,6.7812,1.83,8.4062,0.001,2.4962,0.001,4.995,0.001,7.4925,0,1.485,2.3,1.485,2.3,0v-7.9488-4.715c0-1.0262,0.115-2.2125-0.39125-3.145-1.545-2.8462-4.505-2.3888-7.2525-2.3888h-9.9c-2.8162,0-4.7838,1.685-4.7838,4.5912v9.685c0,2.3275-0.615,6.0288,1.8838,7.3862,2.235,1.2162,5.465,0.6675,7.91,0.6675,4.0262,0,11.952,1.6375,12.534-4.13,0.14875-1.4762-2.1538-1.4625-2.3-0.002" fill-rule="nonzero" fill="#000"/>
 </g>
</svg>
