<?xml version="1.0" encoding="UTF-8" standalone="no"?>
<!-- Created with Inkscape (http://www.inkscape.org/) -->
<svg id="svg3322" xmlns:rdf="http://www.w3.org/1999/02/22-rdf-syntax-ns#" xmlns="http://www.w3.org/2000/svg" viewBox="0 0 101.65 83.079" version="1.1" xmlns:cc="http://creativecommons.org/ns#" xmlns:dc="http://purl.org/dc/elements/1.1/">
 <metadata id="metadata3327">
  <rdf:RDF>
   <cc:Work rdf:about="">
    <dc:format>image/svg+xml</dc:format>
    <dc:type rdf:resource="http://purl.org/dc/dcmitype/StillImage"/>
    <dc:title/>
   </cc:Work>
  </rdf:RDF>
 </metadata>
 <g id="layer1" fill="#FFF" transform="translate(-44.169363,-552.2894)">
  <path id="path132" d="m81.425,571.26c-0.143-0.44-0.428-2.263-0.249-0.848-0.262-2.07-0.185-2.304,0.282-3.869,0.326-1.091,1.511-2.46,3.201-3.439,3.192-1.85,7.331-1.971,10.907-2.013,5.671-0.066,5.678-8.866,0-8.8-7.968,0.092-17.718,1.729-21.67,9.642-1.733,3.47-2.165,7.94-0.956,11.667,1.742,5.374,10.241,3.074,8.485-2.34z"/>
  <path id="path138" d="m116.24,573.6c1.178-3.633,0.751-7.822-0.776-11.26-3.663-8.25-13.834-9.956-21.851-10.049-5.678-0.066-5.671,8.735,0,8.8,3.455,0.04,7.134,0.219,10.321,1.708,1.778,0.83,3.293,2.437,3.647,3.338,0.719,1.834,0.625,1.896,0.452,3.984-0.028,0.333,0.16-0.713-0.11,0.506-0.047,0.213-0.102,0.425-0.169,0.632-1.756,5.415,6.743,7.715,8.486,2.341z"/>
  <path id="path144" d="m137.14,627.57c0.35-1.245,3.043-1.113,1.516-1.113h-1.505-6.167-19.89-46.683-12.704c-2.445,0,1.276,3.345,1.276,1.703v-6.107-43.305-4.104c0,2.554-3.912,2.187-0.168,2.187h14.688,47.269,18.492,4.756c2.756,0-1.037-2.919-1.037-1.703v39.855,13.757c0,5.675,8.8,5.675,8.8,0v-35.874-17.2c0-4.763-3.068-7.635-7.763-7.635h-79.637c-2.829,0-5.963-0.387-8.766,0.157-6.042,1.172-5.434,7.087-5.434,11.745v43.422c0,4.844-0.385,11.902,6.604,11.902h8.195,44.429,27.573c5.415,0,12.753,1.364,14.642-5.348,1.541-5.473-6.951-7.793-8.486-2.339z"/>
  <path id="path150" d="m46.73,575.18c0.63,4.376,1.955,8.604,3.766,12.628,2.716,6.033,7.228,8.468,13.597,8.468h33.28c5.675,0,5.675-8.8,0-8.8h-28.793-6.6c-2.112,0-3.074-2.477-3.885-4.109-1.579-3.18-2.375-7.021-2.879-10.526-0.806-5.6-9.284-3.21-8.486,2.339z"/>
  <path id="path156" d="m135.09,572.84c-0.513,3.563-1.4,7.24-2.879,10.526-1.777,3.948-3.266,4.109-7.124,4.109h-32.153c-5.675,0-5.675,8.8,0,8.8h33.748c11.421,0,15.478-11.256,16.895-21.096,0.798-5.548-7.681-7.938-8.487-2.339z"/>
  <path id="path162" d="m96.728,596.77c2.113-0.714,2.706-1.057,1.778-1.027h-1.176-3.623-2.3c-1.376,0,1.935,3.289,1.935,2.02v-0.846-11.065c-2.474,1.48-3.119,2.197-1.935,2.152h1.176,3.623,2.3c1.376,0-1.935-3.289-1.935-2.02v0.846,11.111c0,5.675,8.8,5.675,8.8,0v-7.358c0-2.87,0.438-6.057-1.246-8.554-2.254-3.344-6.309-2.825-9.801-2.825-4.19,0-8.611,0.413-9.625,5.434-0.508,2.517-0.157,5.339-0.157,7.885,0,3.018-0.524,6.572,1.246,9.197,2.254,3.343,6.309,2.825,9.801,2.825,4.19,0,8.611-0.413,9.625-5.434,1.119-5.542-7.364-7.901-8.486-2.341z"/>
 </g>
</svg>
