<?xml version="1.0" encoding="UTF-8" standalone="no"?>
<!-- Created with Inkscape (http://www.inkscape.org/) -->
<svg id="svg3569" xmlns:rdf="http://www.w3.org/1999/02/22-rdf-syntax-ns#" xmlns="http://www.w3.org/2000/svg" viewBox="0 0 97.86 98.28" version="1.1" xmlns:cc="http://creativecommons.org/ns#" xmlns:dc="http://purl.org/dc/elements/1.1/">
 <metadata id="metadata3574">
  <rdf:RDF>
   <cc:Work rdf:about="">
    <dc:format>image/svg+xml</dc:format>
    <dc:type rdf:resource="http://purl.org/dc/dcmitype/StillImage"/>
    <dc:title/>
   </cc:Work>
  </rdf:RDF>
 </metadata>
 <g id="layer1" fill="#414042" transform="translate(-265.35584,-686.07927)">
  <path id="path33" d="m351.97,771.8c-0.22,2.178-8.076,1.121-9.379,1.121h-21.376-41.103c-2.774,0-3.543-0.29-3.543-3.17v-16.33-45.852c0-2.039-1.134-7.949,0.328-9.721,1.194-1.447,8.193-0.328,9.721-0.328h45.852,16.33c2.879,0,3.17,0.769,3.17,3.543v41.103,29.634c0,7.231,11.213,7.231,11.213,0v-71.455c0-7.248-4.364-14.038-12.352-14.038h-10.312-46.182c-10.051,0-28.981-2.948-28.981,12.406v33.518,38.465c0,7.185,4.895,13.439,12.494,13.439h11.647,44.704c11.002,0,27.443,2.928,28.981-12.334,0.726-7.194-10.494-7.124-11.212-0.001z"/>
  <path id="path39" d="m325.9,734.1c-0.578,15.009-22.687,15.009-23.265,0-0.578-15.024,22.689-14.965,23.265,0,0.277,7.207,11.491,7.234,11.213,0-0.492-12.776-10.069-22.353-22.845-22.845-12.765-0.492-22.382,10.808-22.845,22.845-0.491,12.765,10.808,22.382,22.845,22.845,12.765,0.491,22.382-10.808,22.845-22.845,0.278-7.234-10.936-7.207-11.213,0z"/>
  <path id="path45" d="m332.62,734.35h24.951c7.231,0,7.231-11.213,0-11.213h-24.951c-7.231,0-7.231,11.213,0,11.213z"/>
  <path id="path51" d="m270.96,734.35h25.242c7.231,0,7.231-11.213,0-11.213h-25.242c-7.231,0-7.231,11.213,0,11.213z"/>
 </g>
</svg>
